#!OML:ASF H:\GeneralSubjects\Female5\Project 1\Capture day 1\Session 1\Female5.ASF
:FULLY-SPECIFIED
:DEGREES
729
root 6.09067 15.8213 4.14348 122.893 -80.5501 -130.83
lowerback 17.81 1.92492 -5.29758
upperback -6.0952 1.64215 2.39978
thorax -17.4719 1.50842 5.29458
lowerneck -14.3197 -4.42214 -2.28636
upperneck 33.9263 -8.70874 4.09633
head 14.3278 -3.98732 0.507371
rclavicle -1.90833e-014 1.90833e-014
rhumerus -50.7158 25.2369 -70.7446
rradius 61.8786
rwrist 7.45242
rhand -22.9366 -9.94805
rfingers 7.12502
rthumb 3.50433 -39.899
lclavicle -1.90833e-014 1.90833e-014
lhumerus -49.8596 11.7836 52.7287
lradius 34.3791
lwrist -12.4437
lhand -15.7785 29.344
lfingers 7.12502
lthumb 10.4138 -300.934
rfemur -70.6512 -21.6796 29.7409
rtibia 56.8299
rfoot 391.976 -16.3854
rtoes -2.65446
lfemur 9.02184 -15.545 -33.2236
ltibia 11.1039
lfoot -30.5367 3.77503
ltoes -36.183
730
root 6.10302 15.8101 4.15331 127.151 -80.5433 -134.824
lowerback 17.8359 1.97169 -5.43609
upperback -6.11754 1.63504 2.1754
thorax -17.5118 1.50367 5.11139
lowerneck -14.3245 -4.3268 -2.20495
upperneck 33.1838 -8.53975 4.32307
head 13.9962 -3.86742 0.621821
rclavicle -6.36111e-015 1.03368e-014
rhumerus -50.4724 25.0795 -70.8736
rradius 61.9719
rwrist 7.51504
rhand -23.4001 -9.52437
rfingers 7.12502
rthumb 3.05674 -39.4822
lclavicle -6.36111e-015 1.03368e-014
lhumerus -50.0088 11.9124 52.9923
lradius 34.124
lwrist -11.582
lhand -16.0887 28.4073
lfingers 7.12502
lthumb 10.1146 -301.856
rfemur -71.562 -22.0479 31.6876
rtibia 54.6187
rfoot 390.63 -14.2663
rtoes 1.65185
lfemur 8.71996 -15.2917 -33.5635
ltibia 10.922
lfoot -30.7105 3.67127
ltoes -35.5737
731
root 6.11764 15.8012 4.1627 131.507 -80.5597 -138.906
lowerback 17.8698 2.02584 -5.64866
upperback -6.14564 1.61901 1.95759
thorax -17.5674 1.50433 4.98157
lowerneck -14.5784 -4.29857 -1.82039
upperneck 32.6462 -8.37829 3.9862
head 13.7669 -3.77858 0.450249
rclavicle 1.09332e-014 6.36111e-015
rhumerus -50.3489 24.9203 -71.0091
rradius 62.1428
rwrist 7.65268
rhand -23.5307 -9.48876
rfingers 7.12502
rthumb 2.93059 -39.4484
lclavicle 1.09332e-014 6.36111e-015
lhumerus -50.0326 11.8568 53.4875
lradius 33.8623
lwrist -10.814
lhand -16.2587 28.4181
lfingers 7.12502
lthumb 9.9506 -301.837
rfemur -72.2949 -22.3267 33.2572
rtibia 52.0578
rfoot 387.964 -12.7146
rtoes -3.70774
lfemur 8.42049 -15.157 -33.9994
ltibia 10.7406
lfoot -30.9265 3.75738
ltoes -35.5192
732
root 6.13181 15.7926 4.16964 135.352 -80.4993 -142.503
lowerback 17.9487 2.08583 -5.79358
upperback -6.18861 1.63088 1.7838
thorax -17.6736 1.51526 4.85551
lowerneck -14.802 -4.25252 -1.42151
upperneck 32.1032 -8.17896 3.59012
head 13.528 -3.68146 0.262469
rclavicle 3.26007e-014 -1.03368e-014
rhumerus -50.4479 24.6325 -71.1732
rradius 62.3927
rwrist 7.76465
rhand -23.3236 -9.63418
rfingers 7.12502
rthumb 3.13059 -39.5909
lclavicle 3.26007e-014 -1.03368e-014
lhumerus -50.0555 11.4681 54.286
lradius 33.7905
lwrist -9.94405
lhand -16.3622 29.2288
lfingers 7.12502
lthumb 9.85075 -301.022
rfemur -72.7147 -22.4247 34.4379
rtibia 49.1091
rfoot 385.287 -11.6782
rtoes 4.62897
lfemur 8.12215 -14.9436 -34.3004
ltibia 10.571
lfoot -31.0732 3.70479
ltoes -35.4218
733
root 6.14299 15.7853 4.1755 138.332 -80.3713 -145.248
lowerback 18.023 2.12537 -5.77034
upperback -6.23273 1.66359 1.65185
thorax -17.7746 1.51952 4.67519
lowerneck -14.9666 -4.1719 -1.08674
upperneck 31.4941 -7.88964 3.15005
head 13.2513 -3.56033 0.0882616
rclavicle 0 3.02153e-014
rhumerus -50.6135 24.4506 -71.4165
rradius 62.5425
rwrist 7.67306
rhand -23.2597 -9.63411
rfingers 7.12502
rthumb 3.19235 -39.59
lclavicle 0 3.02153e-014
lhumerus -49.9813 11.1753 55.1093
lradius 33.7369
lwrist -9.51488
lhand -16.8627 29.6545
lfingers 7.12502
lthumb 9.3678 -300.574
rfemur -72.6883 -22.3279 35.099
rtibia 45.8952
rfoot 381.572 -9.55196
rtoes 0.22066
lfemur 7.85124 -14.7168 -34.4567
ltibia 10.3781
lfoot -31.1444 3.72123
ltoes -35.2634
734
root 6.15164 15.7805 4.17985 140.521 -80.241 -147.229
lowerback 18.0743 2.13606 -5.64557
upperback -6.22309 1.692 1.55742
thorax -17.7881 1.50974 4.48216
lowerneck -15.1314 -4.0913 -0.738907
upperneck 30.8267 -7.56841 2.60792
head 12.9508 -3.43666 -0.118698
rclavicle 9.93923e-016 -5.56597e-015
rhumerus -50.5683 24.3491 -71.6485
rradius 62.5096
rwrist 7.6222
rhand -23.3041 -9.71828
rfingers 7.12502
rthumb 3.14946 -39.6748
lclavicle 9.93923e-016 -5.56597e-015
lhumerus -49.7351 10.8763 56.0119
lradius 33.7104
lwrist -9.46615
lhand -17.4689 29.6394
lfingers 7.12502
lthumb 8.78287 -300.563
rfemur -72.1915 -22.0921 35.1346
rtibia 42.5507
rfoot 377.673 -8.49243
rtoes 0.879858
lfemur 7.61021 -14.6156 -34.5686
ltibia 10.2901
lfoot -31.3244 3.79767
ltoes -35.2874
735
root 6.16104 15.7785 4.18395 142.679 -80.1716 -149.176
lowerback 18.1505 2.14355 -5.54288
upperback -6.24058 1.70796 1.46188
thorax -17.8513 1.49875 4.30466
lowerneck -15.0561 -4.04026 -0.367818
upperneck 29.9592 -7.26524 1.99073
head 12.5225 -3.33577 -0.347277
rclavicle 1.47101e-014 -9.54166e-015
rhumerus -50.6887 24.1293 -71.8837
rradius 62.5383
rwrist 7.99481
rhand -23.8226 -9.37962
rfingers 7.12502
rthumb 2.64871 -39.3429
lclavicle 1.47101e-014 -9.54166e-015
lhumerus -49.4949 10.2672 57.123
lradius 33.7989
lwrist -9.28493
lhand -17.9614 29.2938
lfingers 7.12502
lthumb 8.30757 -300.89
rfemur -71.2035 -21.537 34.1614
rtibia 39.0352
rfoot 373.303 -8.40107
rtoes 3.07294
lfemur 7.28864 -14.5279 -34.7279
ltibia 10.3438
lfoot -31.515 3.45512
ltoes -34.834
736
root 6.17001 15.7816 4.18795 145.564 -80.2295 -151.806
lowerback 18.1566 2.18872 -5.65768
upperback -6.32179 1.71884 1.35404
thorax -17.9614 1.51152 4.23941
lowerneck -14.8943 -4.09438 0.272353
upperneck 29.0305 -6.99707 0.740669
head 12.0242 -3.30401 -0.851902
rclavicle 1.33186e-014 3.97569e-015
rhumerus -51.0981 23.8109 -72.0926
rradius 62.6374
rwrist 8.36423
rhand -23.8284 -9.23439
rfingers 7.12502
rthumb 2.64312 -39.1978
lclavicle 1.33186e-014 3.97569e-015
lhumerus -49.305 9.38337 58.5148
lradius 34.0112
lwrist -8.74726
lhand -18.0868 29.1421
lfingers 7.12502
lthumb 8.18654 -301.037
rfemur -69.796 -20.5637 31.9489
rtibia 35.3485
rfoot 368.365 -7.8417
rtoes -3.69159
lfemur 6.86798 -14.3717 -35.0438
ltibia 10.4129
lfoot -31.5846 2.92254
ltoes -34.0881
737
root 6.17544 15.7879 4.19171 147.919 -80.3468 -153.943
lowerback 18.1281 2.21829 -5.73653
upperback -6.37681 1.72749 1.2891
thorax -18.0157 1.52093 4.20513
lowerneck -14.8227 -4.1276 0.692773
upperneck 28.2352 -6.7607 -0.235459
head 11.6342 -3.2725 -1.22026
rclavicle 2.00773e-014 1.35174e-014
rhumerus -51.3999 23.4901 -72.2164
rradius 62.5741
rwrist 8.71286
rhand -23.5263 -9.3626
rfingers 7.12502
rthumb 2.9348 -39.3222
lclavicle 2.00773e-014 1.35174e-014
lhumerus -49.1046 8.26173 60.1679
lradius 34.4379
lwrist -8.16275
lhand -17.5759 29.6191
lfingers 7.12502
lthumb 8.67964 -300.579
rfemur -67.9477 -19.4504 28.9862
rtibia 31.7089
rfoot 362.888 -8.71818
rtoes -14.7876
lfemur 6.55379 -14.2863 -35.3616
ltibia 10.4202
lfoot -31.6725 2.56444
ltoes -33.7123
738
root 6.17608 15.7946 4.19494 149.517 -80.5082 -155.389
lowerback 18.1591 2.20551 -5.65588
upperback -6.40025 1.72247 1.2556
thorax -18.0589 1.50796 4.12088
lowerneck -14.5314 -3.91905 0.116002
upperneck 27.3547 -6.44331 0.531021
head 11.2924 -3.09211 -0.76915
rclavicle 9.0447e-015 7.95139e-016
rhumerus -51.6234 23.2114 -72.3304
rradius 62.4318
rwrist 9.14441
rhand -23.7012 -9.05061
rfingers 7.12502
rthumb 2.76589 -39.0124
lclavicle 9.0447e-015 7.95139e-016
lhumerus -48.8652 7.01594 61.9044
lradius 34.8991
lwrist -7.77241
lhand -17.2011 30.2339
lfingers 7.12502
lthumb 9.04127 -299.98
rfemur -65.6772 -18.1836 25.4566
rtibia 28.2574
rfoot 356.999 -12.2043
rtoes -12.9307
lfemur 6.4022 -14.3359 -35.6614
ltibia 10.3568
lfoot -31.792 1.90386
ltoes -32.6312
739
root 6.1738 15.8012 4.19721 150.985 -80.6742 -156.668
lowerback 18.1179 2.17223 -5.76377
upperback -6.4043 1.67416 1.39177
thorax -18.0433 1.51114 4.36047
lowerneck -14.0259 -3.57981 -0.264421
upperneck 26.1464 -5.83032 0.836825
head 10.7588 -2.81394 -0.47242
rclavicle -1.49089e-015 -5.56597e-015
rhumerus -51.7697 23.2504 -72.3058
rradius 62.3514
rwrist 9.27396
rhand -22.9295 -9.30958
rfingers 7.12502
rthumb 3.5112 -39.2604
lclavicle -1.49089e-015 -5.56597e-015
lhumerus -48.7602 5.92693 63.7928
lradius 35.425
lwrist -7.429
lhand -17.4537 30.9865
lfingers 7.12502
lthumb 8.79752 -299.217
rfemur -63.2638 -16.4547 21.3916
rtibia 24.9863
rfoot 350.276 -17.0374
rtoes -13.687
lfemur 6.30893 -14.4695 -35.9334
ltibia 10.142
lfoot -31.8628 0.524364
ltoes -29.7124
